<svg xmlns="http://www.w3.org/2000/svg" viewBox="0 0 64 80"><rect x="1.5" y="1.5" width="61" height="61" rx="13" fill="#352b2e" stroke="#ff8065" stroke-width="2"/><path d="M13 20 5 12M19 13 14 5M27 11 25 3" fill="none" stroke="#ffb582" stroke-width="4" stroke-linecap="round" stroke-linejoin="round"/><path d="M32 16 46 17 55 28 52 43 42 52 25 50 15 37 19 23Z" fill="#985747" stroke="#ffc094" stroke-width="2.5" stroke-linecap="round" stroke-linejoin="round"/><path d="M28 25C18 23 20 34 28 33 34 32 34 26 28 25ZM43 35C36 33 35 43 42 43 49 44 50 36 43 35Z" fill="#593832" stroke="#d88767" stroke-width="2.5" stroke-linecap="round" stroke-linejoin="round"/><rect x="15" y="58" width="34" height="21" rx="7" fill="#10252f" stroke="#ff8065" stroke-width="1.5"/><text x="32" y="74" text-anchor="middle" font-family="sans-serif" font-size="17" font-weight="bold" fill="#ff8065">−3</text></svg>
